# xmcd
#
# Track frame offsets:
#	150
#	19924
#	35760
#	53533
#	69201
#	85620
#	103259
#	122276
#	143734
#	161142
#	180916
#	196752
#	214525
#	230193
#	246612
#	264251
#	283268
#	304726
#
# Disc length: 4295 seconds
#
# Revision: 1
# Processed by: cddbd v1.5.2PL0 Copyright (c) Steve Scherf et al.
# Submitted via: audiograbber 1.83.01
#
DISCID=f810c512
DTITLE=POP HITS MONTHLY - PHMN0611
DYEAR=1900
DGENRE=
TTITLE0=KIETH URBAN - ONCE IN A LIFETIME
TTITLE1=SUGARLAND - WANT TO
TTITLE2=RASCAL FLATTS - MY WISH
TTITLE3=CARRIE UNDERWOOD - BEFORE HE CHEATS
TTITLE4=TIM MCGRAW - MY LITTLE GIRL
TTITLE5=SARAH BUXTON - INNOCENCE
TTITLE6=BRAD PAISLEY - SHE'S EVERYTHING
TTITLE7=SARA EVANS - YOU'LL ALWAYS BE MY BABY
TTITLE8=TRENT TOMLINSON - ONE WING IN THE FIRE
TTITLE9=KEITH URBAN - V-ONCE IN A LIFETIME
TTITLE10=SUGARLAND - V-WANT TO
TTITLE11=RASCAL FLATTS - V-MY WISH
TTITLE12=CARRIE UNDERWOOD - V-BEFORE HE CHEATS
TTITLE13=TIM MCGRAW - V-MY LITTLE GIRL
TTITLE14=SARAH BUXTON - V-INNOCENCE
TTITLE15=BRAD PAISLEY - V-SHE'S EVERYTHING
TTITLE16=SARA EVANS - V-YOU'LL ALWAYS BE MY BABY
TTITLE17=TRENT TOMLINSON - V-ONE WING IN THE FIRE
EXTD=
EXTT0=
EXTT1=
EXTT2=
EXTT3=
EXTT4=
EXTT5=
EXTT6=
EXTT7=
EXTT8=
EXTT9=
EXTT10=
EXTT11=
EXTT12=
EXTT13=
EXTT14=
EXTT15=
EXTT16=
EXTT17=
PLAYORDER=
